<svg width="1027" height="258" viewBox="0 0 1027 258" fill="none" xmlns="http://www.w3.org/2000/svg">
<path d="M532.21 123.281C533.916 123.281 534.642 124.039 534.389 125.555C534.326 125.682 534.168 125.903 533.916 126.219C533.726 126.534 533.568 126.755 533.442 126.882C533.379 127.008 533.189 127.513 532.873 128.398C532.621 129.219 532.494 129.724 532.494 129.914C531.8 131.872 531.01 133.672 530.126 135.315C529.494 136.199 528.641 137.557 527.567 139.389C527.378 140.273 527.03 141.6 526.525 143.368C525.83 144.442 524.946 146.179 523.872 148.58C523.809 148.706 523.683 149.369 523.493 150.57C523.367 151.201 522.925 152.243 522.167 153.696C521.156 155.465 520.587 156.539 520.461 156.918C519.64 159.129 518.345 162.413 516.576 166.772C516.071 167.846 515.281 169.141 514.207 170.657C512.502 173.057 511.586 174.32 511.46 174.447C510.954 175.584 510.07 177.289 508.807 179.563C508.238 180.195 507.449 181.142 506.438 182.406C505.68 184.364 504.322 187.207 502.364 190.933C501.921 191.312 501.353 191.881 500.658 192.639C500.532 193.081 500.279 193.713 499.9 194.534C499.584 194.66 499.174 194.913 498.668 195.292C498.289 196.176 497.626 197.376 496.679 198.892C495.731 199.587 494.531 200.661 493.078 202.114C493.015 202.493 492.825 202.998 492.51 203.63C491.688 204.199 490.551 205.051 489.098 206.188C487.835 207.641 485.782 209.694 482.94 212.347C482.182 212.726 481.076 213.358 479.623 214.242C478.802 215.127 477.507 216.327 475.739 217.843C475.17 218.095 474.286 218.474 473.086 218.98C472.138 219.675 470.748 220.654 468.917 221.917C467.843 222.233 466.264 222.833 464.179 223.717C463.168 224.475 461.652 225.486 459.631 226.749C459.505 226.812 459.22 226.749 458.778 226.56C458.399 226.56 457.831 226.844 457.073 227.413C456.125 228.044 455.525 228.392 455.272 228.455C454.704 228.455 453.82 228.581 452.619 228.834C451.861 229.276 450.661 229.876 449.019 230.634C445.418 231.961 441.913 232.655 438.501 232.719C437.301 232.719 436.164 232.529 435.09 232.15C433.638 231.582 432.659 231.234 432.153 231.108C432.153 231.108 431.806 231.108 431.111 231.108C430.669 231.108 430.258 230.792 429.879 230.16C429.311 229.276 428.995 228.802 428.932 228.739C427.858 228.234 426.563 227.286 425.047 225.897C425.11 225.518 425.078 225.012 424.952 224.381C424.384 223.875 423.657 223.054 422.773 221.917C422.52 221.412 422.425 220.685 422.489 219.738C422.552 218.538 422.552 217.811 422.489 217.558C422.425 217.179 422.236 216.579 421.92 215.758C421.541 214.937 421.352 214.274 421.352 213.768C421.352 212.947 421.446 212 421.636 210.926C422.52 205.999 423.847 202.367 425.615 200.03C428.268 196.492 432.69 193.429 438.88 190.839C438.817 191.091 438.88 191.439 439.07 191.881C437.364 192.892 434.996 194.597 431.964 196.997C430.258 198.703 428.868 201.167 427.795 204.388C427.605 205.083 427.321 206.03 426.942 207.231C426.563 207.736 426.152 208.494 425.71 209.505C425.521 210.578 425.489 212.442 425.615 215.095C425.742 217.811 425.994 219.58 426.373 220.401C426.689 220.717 427.1 221.222 427.605 221.917C429.879 226.023 432.343 228.423 434.996 229.118C436.322 229.497 437.965 229.687 439.923 229.687C442.007 229.687 443.808 229.529 445.324 229.213C445.892 228.897 446.776 228.518 447.977 228.076C447.661 228.139 448.103 228.171 449.303 228.171C449.682 228.171 450.219 227.918 450.914 227.413C451.609 226.97 452.082 226.718 452.335 226.655C453.283 226.465 454.672 226.086 456.504 225.518C457.136 225.075 458.083 224.507 459.347 223.812C460.421 223.433 461.968 222.77 463.989 221.822C464.495 221.38 465.253 220.78 466.264 220.022C466.832 219.832 467.748 219.485 469.011 218.98C469.959 218.474 471.159 217.495 472.612 216.042C474.128 214.59 475.233 213.61 475.928 213.105C476.876 212.663 478.234 211.842 480.002 210.642C480.066 209.947 480.445 209.378 481.139 208.936C482.403 208.115 483.034 207.704 483.034 207.704C483.413 207.073 484.045 206.188 484.929 205.051C485.561 204.672 486.445 203.946 487.582 202.872C487.772 202.304 488.151 201.451 488.719 200.314C489.414 199.808 490.299 198.987 491.373 197.85C491.688 197.282 492.004 196.429 492.32 195.292C492.636 194.092 492.983 193.207 493.362 192.639C493.615 192.26 494.278 191.66 495.352 190.839C495.921 190.397 496.363 189.354 496.679 187.712C496.868 186.575 497.563 185.343 498.763 184.017C500.595 181.932 501.574 180.795 501.7 180.606C502.522 178.837 503.848 176.152 505.68 172.552C506.248 171.983 507.038 171.036 508.049 169.709C508.238 168.951 508.649 167.846 509.28 166.393C509.723 165.951 510.323 165.224 511.081 164.214C511.397 163.645 511.681 162.54 511.933 160.897C512.123 159.76 512.439 158.939 512.881 158.434C513.386 157.865 513.702 157.455 513.828 157.202C514.271 156.128 514.713 154.486 515.155 152.275C515.597 150.064 516.071 148.422 516.576 147.348C517.208 146.843 517.966 145.706 518.85 143.937C518.85 143.432 518.913 142.674 519.04 141.663C519.103 141.158 519.671 140.179 520.745 138.726C521.882 137.21 522.577 135.757 522.83 134.367C522.956 133.609 522.956 132.472 522.83 130.956C522.64 130.956 522.356 130.893 521.977 130.767C521.598 130.64 521.282 130.577 521.03 130.577C520.398 130.577 518.661 130.988 515.818 131.809C512.976 132.63 511.27 133.199 510.702 133.514C510.133 133.83 509.565 134.399 508.996 135.22C508.238 136.294 507.733 136.957 507.48 137.21C506.848 137.841 505.554 138.726 503.595 139.863C501.637 141 500.342 141.568 499.711 141.568C499.458 141.568 499.111 141.505 498.668 141.379C498.226 141.252 497.91 141.189 497.721 141.189C497.784 141.063 497.816 140.652 497.816 139.957C497.816 139.894 498.384 139.452 499.521 138.631C500.595 137.557 502.364 136.136 504.827 134.367C505.396 134.114 506.28 133.704 507.48 133.135C508.175 132.567 509.28 131.872 510.796 131.051C511.554 130.924 512.691 130.672 514.207 130.293L515.06 129.535C517.082 129.345 520.114 128.84 524.156 128.019C524.914 127.766 526.178 126.85 527.946 125.271C529.462 123.945 530.884 123.281 532.21 123.281Z" fill="black"/>
<path d="M697.608 123.197H697.51C698.032 123.458 698.751 123.85 699.665 124.372C699.665 129.009 699.665 131.327 699.665 131.327C699.404 131.849 699.077 132.665 698.685 133.776C698.62 135.735 698.359 138.64 697.902 142.493C697.836 142.689 697.641 143.048 697.314 143.57C697.053 144.028 696.955 144.452 697.02 144.844C697.02 144.909 697.053 145.432 697.118 146.411C697.183 147.195 696.955 148.468 696.433 150.231C695.91 151.994 695.682 153.3 695.747 154.149C695.877 154.671 696.008 155.455 696.139 156.5C696.204 157.088 696.106 157.708 695.845 158.361C695.518 159.21 695.322 159.797 695.257 160.124C695.257 161.365 695.192 163.16 695.061 165.511C694.996 166.099 694.702 167.47 694.18 169.625C692.874 175.11 692.319 179.028 692.515 181.379C692.645 182.75 692.874 183.762 693.2 184.415C693.461 184.481 693.755 184.709 694.082 185.101H694.376C694.571 185.101 694.8 185.166 695.061 185.297C695.322 185.362 695.518 185.395 695.649 185.395C696.433 185.395 697.118 184.611 697.706 183.044C698.032 181.934 698.359 180.824 698.685 179.714C699.665 178.473 700.938 176.481 702.505 173.739C702.701 172.759 703.093 171.323 703.681 169.429C704.138 168.907 704.66 168.123 705.248 167.078C705.509 166.295 705.966 165.119 706.619 163.552C707.011 163.16 707.436 162.671 707.893 162.083C707.893 161.626 707.991 160.94 708.186 160.026C708.644 159.634 709.231 158.981 709.95 158.067C710.08 157.349 710.407 156.304 710.929 154.933C711.19 154.541 711.713 154.116 712.496 153.659C713.345 153.137 713.9 152.745 714.161 152.484C714.618 151.831 715.304 150.851 716.218 149.545C716.937 149.023 717.786 148.207 718.765 147.097C718.83 146.182 719.059 144.876 719.451 143.179C719.647 142.722 720.136 142.232 720.92 141.709C721.769 141.187 722.291 140.795 722.487 140.534C722.618 139.881 722.912 138.934 723.369 137.694C724.871 135.016 727.678 133.09 731.792 131.915C732.119 131.98 732.511 132.568 732.968 133.678C733.033 134.265 732.902 134.951 732.576 135.735C732.249 136.714 732.053 137.334 731.988 137.596C731.988 137.596 731.988 138.477 731.988 140.24C732.119 140.893 732.119 141.481 731.988 142.003C731.596 142.526 731.139 143.309 730.617 144.354C730.225 146.117 729.474 148.729 728.364 152.19C728.038 152.974 727.417 153.594 726.503 154.051C725.915 154.378 725.524 154.541 725.328 154.541C724.936 154.541 724.511 153.953 724.054 152.778C723.728 152.321 723.271 151.766 722.683 151.113C721.769 151.178 720.626 151.57 719.255 152.288C719.189 152.81 718.994 153.594 718.667 154.639C718.079 155.096 717.263 155.847 716.218 156.892C716.022 157.675 715.598 158.72 714.945 160.026C714.684 160.157 714.292 160.45 713.77 160.908C713.182 162.671 712.235 165.152 710.929 168.352C710.145 169.201 709.101 170.637 707.795 172.661C707.468 173.837 706.848 175.502 705.934 177.657C705.542 177.853 705.085 178.245 704.562 178.832C704.497 179.42 704.301 180.236 703.975 181.281C703.322 181.869 702.505 182.75 701.526 183.926C701.134 185.036 700.481 186.636 699.567 188.725C698.718 189.77 697.575 191.435 696.139 193.721C695.616 194.765 694.996 196.365 694.278 198.52C694.147 199.042 694.147 199.826 694.278 200.871C694.474 202.569 693.755 204.136 692.123 205.572C690.686 206.617 689.25 207.662 687.813 208.707L687.421 209.49H687.225C686.311 209.49 685.854 209.49 685.854 209.49C685.397 208.707 684.875 207.531 684.287 205.964C684.222 205.377 684.319 204.724 684.581 204.005C684.907 203.026 685.103 202.373 685.168 202.046C685.103 199.434 685.397 195.647 686.05 190.684C686.572 189.443 687.16 187.582 687.813 185.101C687.682 183.207 687.682 180.367 687.813 176.579C687.878 176.318 688.27 174.882 688.988 172.27C689.445 170.507 689.609 169.005 689.478 167.764C689.413 166.98 689.119 166.393 688.597 166.001C688.139 165.544 687.617 165.119 687.029 164.728C686.572 164.728 685.952 164.858 685.168 165.119C684.646 165.381 683.928 166.393 683.013 168.156C682.099 169.919 681.446 170.996 681.054 171.388C680.336 171.845 679.357 172.629 678.116 173.739C677.659 174.849 676.777 176.416 675.471 178.44C673.512 180.399 670.378 183.436 666.068 187.55C665.546 188.399 664.632 189.541 663.326 190.978C662.085 191.435 660.452 192.382 658.428 193.819C658.167 194.472 657.579 195.353 656.665 196.463C655.49 196.986 653.792 197.932 651.572 199.304C651.245 199.957 650.69 200.74 649.907 201.654C649.319 201.785 648.405 202.014 647.164 202.34C645.793 203.581 643.932 204.821 641.581 206.062C641.45 206.062 641.32 206.062 641.189 206.062C640.928 205.997 640.765 205.964 640.699 205.964C640.242 205.964 639.589 206.258 638.74 206.846C637.957 207.433 637.402 207.793 637.075 207.923C636.488 207.989 635.606 208.086 634.431 208.217C633.255 209.066 631.362 210.143 628.75 211.449C627.705 211.776 626.235 211.939 624.342 211.939C618.661 211.939 615.69 210.829 615.428 208.609C615.363 207.956 615.788 207.303 616.702 206.65C618.073 205.67 618.824 205.115 618.955 204.985C619.085 204.854 619.412 204.169 619.934 202.928C620.326 201.948 620.848 201.393 621.501 201.263C621.697 201.197 621.991 201.165 622.383 201.165C622.252 201.165 623.33 201.459 625.615 202.046C627.117 202.438 629.435 202.634 632.57 202.634C636.683 202.634 639.687 202.307 641.581 201.654C642.169 201.132 643.148 200.479 644.519 199.695C645.499 199.5 646.903 199.108 648.731 198.52C649.123 198.128 649.743 197.606 650.592 196.953C651.506 196.561 652.845 195.908 654.608 194.994C655.326 194.145 656.404 192.97 657.84 191.468C658.363 191.207 659.081 190.815 659.995 190.292C661.105 189.378 662.346 188.105 663.717 186.472C665.807 183.926 666.95 182.554 667.146 182.358C668.452 181.248 670.247 179.42 672.533 176.873C673.186 175.437 674.329 173.347 675.961 170.605C676.549 170.082 677.332 169.201 678.312 167.96C678.638 166.915 679.193 165.315 679.977 163.16C680.761 162.05 681.707 160.352 682.818 158.067C682.818 157.61 682.916 156.957 683.111 156.108C683.503 155.52 684.058 154.606 684.777 153.365C685.103 152.255 685.625 150.558 686.344 148.272C686.997 147.554 687.78 146.411 688.695 144.844C688.825 144.452 688.792 142.95 688.597 140.338C688.531 139.359 688.629 138.412 688.89 137.498C689.217 136.583 689.38 135.898 689.38 135.441C689.445 134.918 689.38 133.971 689.184 132.6C689.054 131.817 689.086 131.164 689.282 130.641H689.674C689.87 130.576 690.621 129.825 691.927 128.388C693.233 126.886 693.886 126.038 693.886 125.842C693.951 125.58 694.082 125.254 694.278 124.862C694.474 124.666 695.584 124.111 697.608 123.197Z" fill="black"/>
<path d="M767.124 123.197H767.026C767.548 123.458 768.266 123.85 769.18 124.372C769.18 129.009 769.18 131.327 769.18 131.327C768.919 131.849 768.593 132.665 768.201 133.776C768.136 135.735 767.875 138.64 767.417 142.493C767.352 142.689 767.156 143.048 766.83 143.57C766.569 144.028 766.471 144.452 766.536 144.844C766.536 144.909 766.569 145.432 766.634 146.411C766.699 147.195 766.471 148.468 765.948 150.231C765.426 151.994 765.197 153.3 765.263 154.149C765.393 154.671 765.524 155.455 765.654 156.5C765.72 157.088 765.622 157.708 765.36 158.361C765.034 159.21 764.838 159.797 764.773 160.124C764.773 161.365 764.707 163.16 764.577 165.511C764.512 166.099 764.218 167.47 763.695 169.625C762.389 175.11 761.834 179.028 762.03 181.379C762.161 182.75 762.389 183.762 762.716 184.415C762.977 184.481 763.271 184.709 763.597 185.101H763.891C764.087 185.101 764.316 185.166 764.577 185.297C764.838 185.362 765.034 185.395 765.165 185.395C765.948 185.395 766.634 184.611 767.222 183.044C767.548 181.934 767.874 180.824 768.201 179.714C769.18 178.473 770.454 176.481 772.021 173.739C772.217 172.759 772.609 171.323 773.196 169.429C773.654 168.907 774.176 168.123 774.764 167.078C775.025 166.295 775.482 165.119 776.135 163.552C776.527 163.16 776.951 162.671 777.408 162.083C777.408 161.626 777.506 160.94 777.702 160.026C778.159 159.634 778.747 158.981 779.465 158.067C779.596 157.349 779.922 156.304 780.445 154.933C780.706 154.541 781.228 154.116 782.012 153.659C782.861 153.137 783.416 152.745 783.677 152.484C784.134 151.831 784.82 150.851 785.734 149.545C786.452 149.023 787.301 148.207 788.281 147.097C788.346 146.182 788.574 144.876 788.966 143.179C789.162 142.722 789.652 142.232 790.436 141.709C791.284 141.187 791.807 140.795 792.003 140.534C792.133 139.881 792.427 138.934 792.884 137.694C794.386 135.016 797.194 133.09 801.308 131.915C801.634 131.98 802.026 132.568 802.483 133.678C802.549 134.265 802.418 134.951 802.091 135.735C801.765 136.714 801.569 137.334 801.504 137.596C801.504 137.596 801.504 138.477 801.504 140.24C801.634 140.893 801.634 141.481 801.504 142.003C801.112 142.526 800.655 143.309 800.132 144.354C799.741 146.117 798.99 148.729 797.88 152.19C797.553 152.974 796.933 153.594 796.019 154.051C795.431 154.378 795.039 154.541 794.843 154.541C794.451 154.541 794.027 153.953 793.57 152.778C793.243 152.321 792.786 151.766 792.199 151.113C791.284 151.178 790.142 151.57 788.77 152.288C788.705 152.81 788.509 153.594 788.183 154.639C787.595 155.096 786.779 155.847 785.734 156.892C785.538 157.675 785.114 158.72 784.461 160.026C784.199 160.157 783.808 160.45 783.285 160.908C782.698 162.671 781.751 165.152 780.445 168.352C779.661 169.201 778.616 170.637 777.31 172.661C776.984 173.837 776.363 175.502 775.449 177.657C775.057 177.853 774.6 178.245 774.078 178.832C774.013 179.42 773.817 180.236 773.49 181.281C772.837 181.869 772.021 182.75 771.042 183.926C770.65 185.036 769.997 186.636 769.083 188.725C768.234 189.77 767.091 191.435 765.654 193.721C765.132 194.765 764.512 196.365 763.793 198.52C763.663 199.042 763.663 199.826 763.793 200.871C763.989 202.569 763.271 204.136 761.638 205.572C760.202 206.617 758.765 207.662 757.329 208.707L756.937 209.49H756.741C755.827 209.49 755.37 209.49 755.37 209.49C754.913 208.707 754.39 207.531 753.802 205.964C753.737 205.377 753.835 204.724 754.096 204.005C754.423 203.026 754.619 202.373 754.684 202.046C754.619 199.434 754.913 195.647 755.566 190.684C756.088 189.443 756.676 187.582 757.329 185.101C757.198 183.207 757.198 180.367 757.329 176.579C757.394 176.318 757.786 174.882 758.504 172.27C758.961 170.507 759.124 169.005 758.994 167.764C758.928 166.98 758.635 166.393 758.112 166.001C757.655 165.544 757.133 165.119 756.545 164.728C756.088 164.728 755.468 164.858 754.684 165.119C754.162 165.381 753.443 166.393 752.529 168.156C751.615 169.919 750.962 170.996 750.57 171.388C749.852 171.845 748.872 172.629 747.632 173.739C747.175 174.849 746.293 176.416 744.987 178.44C743.028 180.399 739.894 183.436 735.584 187.55C735.061 188.399 734.147 189.541 732.841 190.978C731.601 191.435 729.968 192.382 727.944 193.819C727.683 194.472 727.095 195.353 726.181 196.463C725.005 196.986 723.308 197.932 721.087 199.304C720.761 199.957 720.206 200.74 719.422 201.654C718.835 201.785 717.92 202.014 716.68 202.34C715.308 203.581 713.447 204.821 711.097 206.062C710.966 206.062 710.835 206.062 710.705 206.062C710.444 205.997 710.28 205.964 710.215 205.964C709.758 205.964 709.105 206.258 708.256 206.846C707.472 207.433 706.917 207.793 706.591 207.923C706.003 207.989 705.122 208.086 703.946 208.217C702.771 209.066 700.877 210.143 698.265 211.449C697.22 211.776 695.751 211.939 693.857 211.939C688.176 211.939 685.205 210.829 684.944 208.609C684.879 207.956 685.303 207.303 686.217 206.65C687.589 205.67 688.34 205.115 688.47 204.985C688.601 204.854 688.927 204.169 689.45 202.928C689.841 201.948 690.364 201.393 691.017 201.263C691.213 201.197 691.507 201.165 691.898 201.165C691.768 201.165 692.845 201.459 695.131 202.046C696.633 202.438 698.951 202.634 702.085 202.634C706.199 202.634 709.203 202.307 711.097 201.654C711.684 201.132 712.664 200.479 714.035 199.695C715.014 199.5 716.418 199.108 718.247 198.52C718.639 198.128 719.259 197.606 720.108 196.953C721.022 196.561 722.361 195.908 724.124 194.994C724.842 194.145 725.92 192.97 727.356 191.468C727.879 191.207 728.597 190.815 729.511 190.292C730.621 189.378 731.862 188.105 733.233 186.472C735.323 183.926 736.465 182.554 736.661 182.358C737.967 181.248 739.763 179.42 742.049 176.873C742.702 175.437 743.844 173.347 745.477 170.605C746.064 170.082 746.848 169.201 747.828 167.96C748.154 166.915 748.709 165.315 749.493 163.16C750.276 162.05 751.223 160.352 752.333 158.067C752.333 157.61 752.431 156.957 752.627 156.108C753.019 155.52 753.574 154.606 754.292 153.365C754.619 152.255 755.141 150.558 755.859 148.272C756.512 147.554 757.296 146.411 758.21 144.844C758.341 144.452 758.308 142.95 758.112 140.338C758.047 139.359 758.145 138.412 758.406 137.498C758.733 136.583 758.896 135.898 758.896 135.441C758.961 134.918 758.896 133.971 758.7 132.6C758.569 131.817 758.602 131.164 758.798 130.641H759.19C759.386 130.576 760.136 129.825 761.442 128.388C762.748 126.886 763.401 126.038 763.401 125.842C763.467 125.58 763.597 125.254 763.793 124.862C763.989 124.666 765.099 124.111 767.124 123.197Z" fill="black"/>
<path d="M853.547 124.274C855.245 124.274 855.996 124.829 855.8 125.94C855.604 126.919 854.658 128.421 852.96 130.445C852.046 131.164 850.805 132.306 849.238 133.873C848.781 134.396 848.421 135.147 848.16 136.126C847.703 137.498 847.409 138.281 847.279 138.477C847.148 138.673 846.201 140.403 844.438 143.668C843.263 145.823 842.544 147.586 842.283 148.958C842.218 149.741 842.022 150.917 841.696 152.484C841.434 154.051 840.749 156.108 839.639 158.655C838.006 162.246 837.092 164.303 836.896 164.825C834.088 172.4 831.835 177.787 830.138 180.987C826.807 187.256 822.987 191.794 818.677 194.602C818.024 194.798 817.078 195.157 815.837 195.68C815.119 196.398 813.943 197.312 812.311 198.422C811.592 198.553 810.515 198.814 809.078 199.206C807.315 199.924 805.552 200.675 803.789 201.459C801.83 202.242 799.937 202.634 798.108 202.634C795.235 202.634 792.101 201.883 788.705 200.381C788.248 200.185 787.53 199.663 786.55 198.814C785.571 197.9 785.048 197.247 784.983 196.855C784.983 196.79 784.983 196.659 784.983 196.463C785.048 196.333 785.081 196.235 785.081 196.169C785.995 192.121 786.681 189.803 787.138 189.215C787.464 189.084 787.889 188.79 788.411 188.333C788.999 188.529 789.717 188.954 790.566 189.607C790.762 189.933 790.827 190.488 790.762 191.272C790.697 192.251 790.664 192.839 790.664 193.035C791.056 197.149 793.309 199.206 797.422 199.206C800.165 199.206 803.463 198.553 807.315 197.247C811.56 195.875 814.466 194.243 816.033 192.349C816.359 191.566 816.947 190.39 817.796 188.823C818.188 188.627 818.775 188.235 819.559 187.648C820.016 187.191 820.865 185.819 822.106 183.534C823.412 181.183 824.097 179.714 824.163 179.126C824.293 178.538 824.457 177.657 824.652 176.481C824.848 175.241 825.697 173.282 827.199 170.604C828.701 167.927 829.583 165.87 829.844 164.434C829.844 164.303 829.942 163.193 830.138 161.103C830.268 160.385 830.627 159.601 831.215 158.753C831.803 157.838 832.129 157.087 832.195 156.5C832.325 155.912 832.488 154.998 832.684 153.757C832.815 153.169 833.141 152.419 833.664 151.504C834.251 150.59 834.578 149.872 834.643 149.349C834.774 148.762 834.937 147.88 835.133 146.705C835.264 145.856 835.688 145.007 836.406 144.158C837.125 143.244 837.516 142.558 837.582 142.101C837.647 141.579 837.745 140.828 837.876 139.848C837.745 139.783 837.549 139.522 837.288 139.065C837.157 138.869 836.733 138.771 836.015 138.771C834.839 138.771 832.717 139.195 829.648 140.044C826.383 140.893 824.391 141.611 823.673 142.199C823.281 142.526 822.889 143.179 822.498 144.158C822.106 145.072 821.747 145.725 821.42 146.117C821.42 146.117 819.167 147.39 814.662 149.937H813.976C813.062 149.937 812.67 149.545 812.801 148.762C813.062 147.456 814.009 146.052 815.641 144.55C816.033 144.55 816.294 144.55 816.425 144.55C816.621 144.485 817.339 143.864 818.58 142.689C819.886 141.513 820.669 140.861 820.93 140.73C821.91 140.208 825.142 139.163 830.627 137.596C832.717 137.204 835.525 136.453 839.051 135.343C840.945 134.363 842.904 132.567 844.928 129.955C845.124 129.498 845.516 128.911 846.103 128.192C846.299 127.996 847.54 127.213 849.825 125.842C850.413 125.385 851.393 124.862 852.764 124.274H853.547Z" fill="black"/>
<path d="M216.095 138.668C215.944 138.819 215.564 139.427 214.957 140.489C212.528 140.717 210.365 140.869 208.467 140.945C207.556 140.945 206.342 140.907 204.824 140.831C203.078 140.679 201.864 140.603 201.181 140.603C200.953 140.603 200.573 140.679 200.042 140.831C199.511 140.907 199.093 140.945 198.79 140.945C198.486 140.869 198.22 140.869 197.993 140.945C197.234 140.945 196.475 141.628 195.716 142.994C195.184 144.057 194.843 145.081 194.691 146.068C194.463 147.358 194.501 148.345 194.805 149.028C195.108 149.332 195.526 149.863 196.057 150.622C196.816 151.913 198.144 153.658 200.042 155.859C200.725 156.163 201.636 156.656 202.775 157.34C203.837 158.706 205.545 160.641 207.898 163.146C208.657 163.45 209.682 164.095 210.972 165.082C211.2 165.613 211.617 166.372 212.224 167.359C213.135 168.118 214.274 169.408 215.64 171.23C215.716 171.913 215.944 172.9 216.323 174.19C216.779 174.645 217.234 175.48 217.689 176.695C217.841 177.226 217.765 179.275 217.462 182.843C216.854 186.031 216.285 188.042 215.754 188.877C215.298 189.181 214.653 189.75 213.818 190.585C212.983 191.344 211.883 192.558 210.517 194.228C210.365 194.835 209.909 195.746 209.15 196.961C208.467 197.796 206.57 199.048 203.458 200.718C200.422 202.312 198.41 203.109 197.423 203.109C197.272 203.109 197.044 203.071 196.74 202.995C196.437 202.995 196.209 202.995 196.057 202.995C195.602 202.995 194.881 203.261 193.894 203.792C192.68 204.475 191.92 204.855 191.617 204.93C187.063 206.524 183.951 207.321 182.281 207.321C181.825 207.321 181.142 207.283 180.231 207.208C179.321 207.208 178.6 207.208 178.068 207.208C177.082 207.208 175.601 207.473 173.628 208.005C171.654 208.536 170.174 208.802 169.188 208.802C168.732 208.802 168.163 208.65 167.48 208.346C166.797 208.042 166.303 207.853 166 207.777C165.089 207.701 163.723 207.511 161.901 207.208C160.535 206.524 158.372 205.765 155.411 204.93C155.411 204.93 154.235 204.93 151.882 204.93C150.288 204.93 149.036 204.551 148.125 203.792C146.683 202.426 145.81 201.667 145.506 201.515C144.519 201.363 143.191 200.984 141.521 200.376C141.142 200.149 140.003 198.82 138.106 196.391C136.284 193.963 135.373 192.596 135.373 192.293C135.525 191.002 135.563 189.067 135.487 186.486C135.411 186.107 135.145 185.575 134.69 184.892C134.235 184.133 134.007 183.488 134.007 182.957C134.007 182.653 134.045 182.349 134.121 182.046C134.272 181.211 134.766 180.338 135.601 179.427C136.739 178.289 137.422 177.492 137.65 177.036C137.878 176.201 138.295 174.987 138.903 173.393C139.054 173.241 140.345 172.292 142.774 170.547C145.202 168.801 146.569 167.89 146.872 167.814C147.176 167.662 147.593 167.586 148.125 167.586C148.656 167.511 149.036 167.435 149.263 167.359C149.263 167.586 149.339 167.89 149.491 168.27C149.719 168.573 149.795 168.877 149.719 169.18C149.643 169.712 149.301 170.281 148.694 170.888C147.859 171.723 147.366 172.216 147.214 172.368C145.62 174.645 144.823 177.112 144.823 179.769C144.823 180.3 145.354 182.274 146.417 185.689C148.39 192.141 151.996 196.429 157.233 198.555C157.764 198.555 158.485 198.631 159.396 198.782C159.7 199.086 160.117 199.541 160.649 200.149C161.559 200.225 162.85 200.452 164.52 200.832C165.051 201.211 165.848 201.705 166.911 202.312C170.554 203.754 174.729 204.437 179.435 204.361C183.002 204.285 188.163 203.602 194.919 202.312L195.488 200.718C195.108 200.566 194.767 200.376 194.463 200.149C193.932 199.921 193.704 199.655 193.78 199.352C193.932 198.82 194.008 198.517 194.008 198.441C194.463 198.137 195.184 197.758 196.171 197.302C196.93 197.302 198.069 197.188 199.587 196.961C200.27 196.657 200.915 196.126 201.522 195.367C202.205 194.532 202.812 193.773 203.344 193.09C203.951 192.71 204.748 192.027 205.735 191.04C206.721 189.978 207.443 188.004 207.898 185.12C208.126 183.754 208.164 182.691 208.012 181.932C207.632 181.249 207.063 180.224 206.304 178.858C206.076 177.795 205.545 176.239 204.71 174.19C204.331 173.962 203.799 173.583 203.116 173.051C203.116 172.976 203.154 172.862 203.23 172.71C203.23 172.558 203.23 172.444 203.23 172.368C203.306 172.065 202.85 171.495 201.864 170.66C200.953 169.826 200.46 169.37 200.384 169.294C200.232 168.763 199.852 168.004 199.245 167.017C198.334 165.879 197.537 165.082 196.854 164.626C196.171 164.474 195.222 164.133 194.008 163.602C193.78 162.918 193.287 162.159 192.528 161.324C191.845 161.249 190.896 160.945 189.681 160.414C188.998 159.958 188.467 159.085 188.087 157.795C187.632 155.973 187.328 154.949 187.177 154.721C187.025 154.493 186.38 153.886 185.241 152.899C184.33 152.14 183.951 151.419 184.103 150.736C184.33 150.129 184.558 149.294 184.786 148.231C185.469 145.651 186.038 144.208 186.493 143.905C187.784 143.298 189.112 142.69 190.478 142.083C191.541 141.248 193.173 140.11 195.374 138.668C196.664 138.06 198.979 137.453 202.319 136.846C205.431 136.239 207.784 135.935 209.378 135.935C211.959 135.935 213.894 136.466 215.185 137.529C215.336 137.605 215.488 137.795 215.64 138.098C215.868 138.326 216.02 138.516 216.095 138.668Z" fill="black"/>
<path d="M289.433 133.916C291.023 133.916 291.723 134.425 291.532 135.443C291.405 135.824 291.214 136.397 290.959 137.16C289.56 137.987 288.351 138.528 287.333 138.782C285.043 139.291 283.835 139.577 283.708 139.641C283.199 139.959 282.435 140.341 281.418 140.786C280.4 140.786 278.81 141.136 276.647 141.835C276.265 142.026 275.057 143.044 273.021 144.889C271.049 146.67 269.936 147.783 269.682 148.228C269.491 148.61 269.173 149.151 268.727 149.85C268.028 150.168 267.042 150.741 265.77 151.568C264.943 152.204 263.925 153.254 262.716 154.717C261.571 156.18 260.681 157.197 260.045 157.77C259.727 157.897 259.249 158.152 258.613 158.533C258.104 159.487 257.246 160.855 256.037 162.636C254.638 163.908 252.825 165.976 250.598 168.838C250.408 169.156 250.121 170.11 249.74 171.701C249.485 172.655 249.008 173.577 248.308 174.468C247.291 175.74 246.655 176.599 246.4 177.044C245.7 178.889 244.587 181.624 243.061 185.25C242.361 186.204 241.407 187.699 240.198 189.734C239.053 192.469 238.481 194.982 238.481 197.272C238.481 199.18 238.926 200.77 239.817 202.043C240.007 202.552 240.421 203.124 241.057 203.76C241.375 203.887 242.075 203.951 243.156 203.951C245.7 203.951 249.422 203.029 254.32 201.184C258.963 199.403 262.621 197.622 265.292 195.841C265.929 195.077 266.915 193.964 268.25 192.501C269.459 191.801 271.113 190.593 273.212 188.875C273.466 188.303 273.975 187.508 274.739 186.49C275.438 186.108 276.456 185.377 277.792 184.295C278.301 183.723 278.905 182.642 279.605 181.051C280.305 179.461 280.941 178.38 281.513 177.807C282.022 177.553 282.69 177.139 283.517 176.567C283.771 175.994 284.248 175.167 284.948 174.086C286.284 172.623 288.256 170.428 290.864 167.502C291.945 166.612 293.217 165.276 294.68 163.495C294.871 163.05 295.126 162.382 295.444 161.491C296.016 159.265 296.334 157.325 296.398 155.671L295.921 154.43L296.016 153.953C296.143 153.317 296.557 152.427 297.257 151.282C298.02 150.137 298.433 149.246 298.497 148.61C298.624 147.974 298.752 146.956 298.879 145.557C298.942 145.429 299.038 145.239 299.165 144.984C299.483 144.348 300.978 143.108 303.65 141.263C306.385 139.355 308.07 138.401 308.707 138.401C309.788 138.401 310.329 138.401 310.329 138.401C310.71 138.782 311.124 139.355 311.569 140.118C311.887 141.199 311.728 142.98 311.092 145.461C310.456 147.942 309.597 149.946 308.516 151.472C307.752 152.172 306.766 153.285 305.558 154.812C304.731 156.784 303.3 159.678 301.264 163.495C299.865 165.594 298.465 167.693 297.066 169.792C295.921 171.637 294.967 173.959 294.203 176.758C293.504 179.493 292.836 183.946 292.2 190.116C292.136 190.497 291.977 191.579 291.723 193.36C291.468 194.759 291.341 195.841 291.341 196.604C291.341 197.622 291.5 198.481 291.818 199.18C292.009 199.498 292.231 199.88 292.486 200.325C292.74 200.707 292.836 201.057 292.772 201.375C292.518 202.329 290.991 203.251 288.192 204.142C286.411 204.714 284.598 205.255 282.754 205.764L282.658 206.146L282.467 206.241C282.276 206.241 281.99 206.177 281.609 206.05C281.29 205.859 281.004 205.764 280.75 205.764C280.75 205.191 280.654 204.364 280.464 203.283C280.273 202.647 280.209 202.234 280.273 202.043C280.336 201.788 280.559 201.661 280.941 201.661C281.131 200.834 281.418 199.626 281.799 198.035C282.117 196.89 282.467 196.191 282.849 195.936C283.485 195.364 283.898 194.95 284.089 194.696C284.789 193.678 285.362 192.31 285.807 190.593C286.061 189.702 286.188 188.875 286.188 188.112C286.188 186.077 285.266 185.027 283.421 184.963C282.976 184.963 282.499 185.027 281.99 185.154C281.227 185.345 279.732 186.681 277.506 189.162C275.025 191.833 273.466 193.392 272.83 193.837C272.067 194.028 270.986 194.441 269.586 195.077C268.696 195.841 267.296 196.922 265.388 198.322C264.625 198.576 263.416 198.989 261.762 199.562C260.617 200.452 258.836 201.566 256.419 202.901C255.019 203.156 252.952 203.697 250.217 204.524C249.199 205.16 247.641 205.955 245.541 206.909C244.333 207.036 242.87 207.354 241.152 207.863C240.961 207.927 240.771 208.181 240.58 208.626C237.908 210.089 235.332 210.821 232.851 210.821C231.643 210.821 230.784 210.598 230.275 210.153C230.211 210.089 230.116 209.93 229.989 209.676C229.925 209.358 229.83 209.167 229.702 209.103C229.194 208.277 228.939 207.609 228.939 207.1C228.939 206.973 229.13 206.241 229.512 204.905C229.766 204.078 229.893 203.379 229.893 202.806C229.893 202.234 229.734 201.693 229.416 201.184C229.098 200.675 228.939 200.23 228.939 199.848C228.939 199.594 229.003 199.276 229.13 198.894C229.384 198.003 229.989 196.827 230.943 195.364C231.897 193.901 232.47 192.724 232.66 191.833C232.915 190.879 233.265 189.511 233.71 187.73C234.346 185.377 235.3 183.278 236.572 181.433C237.145 181.051 237.876 180.415 238.767 179.525C239.085 179.016 239.562 177.553 240.198 175.136C240.643 173.545 241.693 171.828 243.347 169.983C245.319 167.82 246.559 166.166 247.068 165.021C247.195 164.576 247.513 163.908 248.022 163.018C249.04 162.318 250.439 161.237 252.221 159.774C253.175 158.501 254.733 156.72 256.896 154.43C257.977 153.921 259.472 152.936 261.38 151.472C261.762 150.836 262.398 149.882 263.289 148.61C263.861 148.228 264.625 147.56 265.579 146.606C265.833 145.843 266.247 144.73 266.819 143.267C266.056 143.203 264.911 143.171 263.384 143.171C260.903 143.171 258.741 143.394 256.896 143.839C256.514 143.903 255.846 144.189 254.892 144.698C253.938 145.207 253.206 145.461 252.698 145.461C252.507 145.461 252.284 145.429 252.03 145.366C251.712 145.366 251.489 145.366 251.362 145.366C250.917 145.366 250.408 145.589 249.835 146.034C249.326 146.415 248.945 146.638 248.69 146.702C247.609 146.765 246.019 147.02 243.919 147.465C241.566 148.292 238.767 150.073 235.523 152.808C232.279 155.544 230.021 157.993 228.748 160.155C228.557 160.919 228.112 162.032 227.412 163.495C226.268 165.403 224.423 167.693 221.878 170.365C221.433 170.492 221.115 170.651 220.924 170.842C220.543 171.223 219.97 172.432 219.207 174.468C218.316 177.012 217.807 178.411 217.68 178.666C216.79 180.511 213.673 182.419 208.329 184.391C208.266 184.264 208.075 183.914 207.757 183.341C207.566 183.023 207.566 182.61 207.757 182.101C208.329 179.811 210.047 176.853 212.909 173.227C213.482 172.782 214.213 172.114 215.104 171.223C215.295 170.905 215.517 170.206 215.772 169.124C216.09 168.043 216.98 166.803 218.443 165.403C219.906 164.004 220.797 162.668 221.115 161.396C221.37 160.378 222.483 159.201 224.455 157.865C225.918 156.848 227.381 155.83 228.844 154.812C231.261 152.713 233.01 151.25 234.092 150.423C236.064 148.833 237.908 147.592 239.626 146.702C240.707 146.384 242.393 145.843 244.683 145.08C246.146 144.316 248.404 143.362 251.457 142.217C253.175 142.026 255.783 141.581 259.281 140.881C260.108 140.436 261.349 139.895 263.002 139.259C263.702 139.068 264.815 139.005 266.342 139.068C267.487 139.068 268.982 138.75 270.827 138.114C272.671 137.415 274.007 137.065 274.834 137.065C275.216 137.065 275.788 137.097 276.552 137.16C277.315 137.224 277.887 137.256 278.269 137.256C279.541 137.256 281.386 136.715 283.803 135.633C286.22 134.489 288.097 133.916 289.433 133.916Z" fill="black"/>
<path d="M142.769 140.634C144.418 140.634 145.147 141.173 144.957 142.251C144.766 143.202 143.847 144.661 142.198 146.627C141.31 147.324 140.105 148.434 138.583 149.956C138.139 150.464 137.791 151.193 137.537 152.144C137.093 153.476 136.808 154.237 136.681 154.427C136.554 154.617 135.634 156.298 133.922 159.469C132.781 161.562 132.083 163.274 131.829 164.606C131.766 165.367 131.576 166.508 131.259 168.03C131.005 169.552 130.339 171.55 129.261 174.023C127.676 177.511 126.788 179.509 126.597 180.016C123.871 187.372 121.683 192.604 120.034 195.711C116.8 201.799 113.09 206.207 108.904 208.934C108.27 209.124 107.35 209.473 106.146 209.98C105.448 210.678 104.306 211.566 102.721 212.644C102.023 212.771 100.977 213.024 99.5819 213.405C97.8697 214.102 96.1574 214.832 94.4452 215.593C92.5427 216.354 90.7036 216.734 88.9279 216.734C86.1376 216.734 83.0936 216.005 79.7959 214.546C79.352 214.356 78.6544 213.849 77.7032 213.024C76.7519 212.136 76.2446 211.502 76.1812 211.122C76.1812 211.058 76.1812 210.932 76.1812 210.741C76.2446 210.614 76.2763 210.519 76.2763 210.456C77.1641 206.524 77.83 204.273 78.2739 203.702C78.591 203.575 79.0032 203.29 79.5105 202.846C80.0813 203.036 80.7789 203.448 81.6033 204.082C81.7935 204.4 81.857 204.939 81.7935 205.7C81.7301 206.651 81.6984 207.222 81.6984 207.412C82.0789 211.407 84.2668 213.405 88.262 213.405C90.9255 213.405 94.1281 212.771 97.8697 211.502C101.992 210.17 104.814 208.585 106.336 206.746C106.653 205.985 107.224 204.843 108.048 203.321C108.429 203.131 108.999 202.751 109.76 202.18C110.204 201.736 111.029 200.404 112.234 198.185C113.502 195.902 114.168 194.475 114.231 193.904C114.358 193.333 114.517 192.477 114.707 191.336C114.897 190.131 115.721 188.228 117.18 185.628C118.639 183.028 119.495 181.031 119.748 179.635C119.748 179.508 119.844 178.43 120.034 176.401C120.161 175.703 120.509 174.942 121.08 174.118C121.651 173.23 121.968 172.501 122.031 171.93C122.158 171.359 122.317 170.472 122.507 169.267C122.634 168.696 122.951 167.967 123.458 167.079C124.029 166.191 124.346 165.493 124.41 164.986C124.536 164.415 124.695 163.559 124.885 162.418C125.012 161.593 125.424 160.769 126.122 159.944C126.819 159.057 127.2 158.391 127.263 157.947C127.327 157.439 127.422 156.71 127.549 155.759C127.422 155.696 127.232 155.442 126.978 154.998C126.851 154.808 126.439 154.713 125.741 154.713C124.6 154.713 122.539 155.125 119.558 155.949C116.387 156.774 114.453 157.471 113.756 158.042C113.375 158.359 112.995 158.993 112.614 159.944C112.234 160.832 111.885 161.466 111.568 161.847C111.568 161.847 109.38 163.084 105.004 165.557H104.338C103.45 165.557 103.07 165.176 103.197 164.415C103.45 163.147 104.37 161.784 105.955 160.325C106.336 160.325 106.589 160.325 106.716 160.325C106.907 160.262 107.604 159.659 108.809 158.518C110.077 157.376 110.838 156.742 111.092 156.615C112.043 156.108 115.182 155.093 120.509 153.571C122.539 153.191 125.266 152.461 128.69 151.383C130.529 150.432 132.432 148.688 134.398 146.151C134.588 145.707 134.968 145.137 135.539 144.439C135.729 144.249 136.934 143.488 139.154 142.156C139.725 141.712 140.676 141.205 142.008 140.634H142.769Z" fill="black"/>
<path d="M29.552 117.908L30.7034 118.579C29.6159 120.626 28.7844 122.417 28.2087 123.952C27.633 125.488 27.4091 126.607 27.5371 127.311C27.601 127.758 27.9528 128.174 28.5925 128.558C29.0403 128.878 29.52 129.198 30.0317 129.517C32.5264 131.436 36.2683 132.684 41.2576 133.259C43.9442 133.579 48.3578 133.739 54.4984 133.739C55.394 133.739 57.217 133.707 59.9675 133.643C62.2702 133.643 64.1252 133.643 65.5325 133.643C65.5325 133.643 66.6199 133.643 68.7947 133.643C69.9461 134.027 71.7371 134.507 74.1678 135.082C75.9588 135.274 77.7179 135.434 79.4449 135.562C81.4918 135.882 82.995 136.458 83.9545 137.289C84.6581 137.929 85.2018 139.816 85.5856 142.95C85.7135 143.334 85.8095 143.75 85.8734 144.197C85.9374 144.517 85.8734 144.965 85.6815 145.541C85.0419 147.332 83.4108 149.73 80.7882 152.737C78.2296 155.743 76.0867 157.758 74.3597 158.782C73.72 158.973 72.7606 159.325 71.4812 159.837C70.01 161.18 67.6433 162.939 64.3811 165.114C62.0783 165.754 59.4877 166.681 56.6093 167.897C56.4814 168.089 56.3215 168.376 56.1296 168.76C56.0016 169.144 55.8417 169.432 55.6498 169.624C56.4174 170.391 57.5368 171.575 59.008 173.174C59.7116 174.005 60.5432 175.381 61.5027 177.3C62.4621 179.154 63.2617 180.498 63.9014 181.329C64.541 181.905 65.3726 182.833 66.396 184.112C67.0996 185.519 68.3789 187.598 70.2339 190.348C72.1529 193.035 73.4962 195.146 74.2637 196.681C74.4556 197.001 74.8714 198.184 75.5111 200.231C76.0228 201.638 76.5985 202.694 77.2381 203.397C78.5174 204.357 80.3085 205.924 82.6112 208.099C82.931 208.674 83.4747 209.474 84.2423 210.498C84.818 210.689 85.6176 211.009 86.641 211.457C87.1527 211.969 87.6325 212.48 88.0802 212.992C88.528 213.504 89.3276 213.76 90.4789 213.76C93.5493 213.76 97.6431 212.544 102.76 210.114C103.144 209.858 103.72 209.506 104.487 209.058H104.871C105.063 209.058 105.319 209.122 105.639 209.25C105.959 209.378 106.246 209.442 106.502 209.442C106.31 209.89 105.799 210.466 104.967 211.169C104.136 211.873 102.664 212.512 100.553 213.088C97.803 213.792 96.2358 214.207 95.852 214.335C95.0844 214.783 93.9331 215.391 92.3979 216.158C91.1826 216.542 89.4555 216.734 87.2167 216.734C85.1059 216.734 83.6666 216.542 82.8991 216.158C82.7072 215.839 82.3234 215.359 81.7477 214.719C81.172 214.655 80.4044 214.399 79.4449 213.952C78.9972 213.184 78.1976 212.129 77.0462 210.785C76.4705 210.657 75.671 210.306 74.6475 209.73C74.3917 209.41 74.1998 208.834 74.0718 208.003C73.9439 207.171 73.688 206.66 73.3043 206.468C72.9205 206.276 72.3448 205.956 71.5772 205.508C70.8736 205.06 70.17 204.037 69.4663 202.438C69.2744 201.478 68.8267 200.039 68.1231 198.12C67.4834 197.481 66.7158 196.425 65.8203 194.954C65.8843 194.25 65.8523 193.323 65.7244 192.171C65.4045 191.98 64.9248 191.66 64.2851 191.212C64.2851 190.7 64.1572 189.965 63.9014 189.005C63.7095 188.621 63.2937 188.238 62.654 187.854C61.8225 187.47 61.3108 187.15 61.1189 186.894C60.927 186.127 60.4792 185.103 59.7756 183.824C59.1359 183.376 58.2404 182.609 57.089 181.521C55.9377 180.178 55.1061 178.931 54.5944 177.779C54.5944 177.012 54.3705 176.084 53.9228 174.997C53.2191 174.805 52.2277 174.453 50.9484 173.941C50.8204 173.558 50.5326 173.078 50.0848 172.502C49.1254 171.926 47.5262 171.543 45.2874 171.351C43.4325 171.223 41.6094 171.127 39.8184 171.063L38.2832 170.967C38.1553 171.095 37.7715 171.415 37.1319 171.926C36.812 172.118 36.5242 172.598 36.2683 173.366C36.0125 174.133 35.6926 175.221 35.3089 176.628C34.5413 178.931 32.8462 182.96 30.2236 188.717C27.2172 195.242 25.1704 199.112 24.0829 200.327C23.5712 200.647 22.9316 201.127 22.164 201.766C21.9721 202.342 21.5883 203.141 21.0126 204.165C27.0253 204.869 30.3196 205.22 30.8952 205.22C32.1746 205.22 33.4858 205.124 34.8291 204.933C35.9165 204.293 37.4837 203.461 39.5306 202.438C40.1702 202.374 41.1617 202.246 42.505 202.054C42.377 202.182 42.3131 202.31 42.3131 202.438C42.1851 202.95 42.1212 203.301 42.1212 203.493C38.2832 205.092 36.1724 205.956 35.7886 206.084C33.4858 207.043 31.375 207.683 29.456 208.003C28.2407 208.067 26.3217 208.195 23.6992 208.387C23.3793 208.451 22.7717 208.579 21.8761 208.77C20.9806 209.026 20.309 209.154 19.8612 209.154C18.2621 209.154 16.7589 208.77 15.3517 208.003C15.2237 207.939 15.0318 207.747 14.776 207.427C14.5841 207.107 14.3282 206.947 14.0084 206.947C13.6886 206.947 13.2408 207.011 12.6651 207.139C12.0894 207.267 11.6737 207.331 11.4178 207.331C10.7142 207.331 9.62678 207.235 8.15558 207.043C6.74834 206.915 5.69291 206.851 4.98929 206.851C4.22171 206.851 3.45413 206.979 2.68654 207.235C1.91896 207.555 1.43922 207.715 1.24732 207.715C0.863532 207.715 0.60767 207.555 0.47974 207.235C0.287844 206.915 0.127931 206.724 0 206.66C0.575688 205.956 1.72706 205.124 3.45413 204.165C4.54154 203.909 6.87627 203.781 10.4583 203.781C14.4881 203.781 17.9103 201.191 20.7248 196.009C22.5798 191.724 24.4348 187.438 26.2897 183.152C27.633 181.169 29.3601 178.067 31.4709 173.845C31.7908 172.886 31.8867 172.15 31.7588 171.639C31.5669 170.935 31.5029 170.391 31.5669 170.007C31.6948 169.176 32.1106 167.737 32.8142 165.69C33.4539 163.899 34.0295 162.524 34.5413 161.564C34.989 160.796 35.9805 159.485 37.5157 157.63C38.731 156.159 39.7225 154.368 40.49 152.257C40.7459 151.553 40.8738 150.914 40.8738 150.338C40.8738 149.826 40.7459 149.283 40.49 148.707C40.2981 148.131 40.2022 147.748 40.2022 147.556C40.2022 146.852 40.9058 145.861 42.3131 144.581C42.8248 144.261 44.0721 143.622 46.055 142.662C48.1019 141.639 49.2533 141.127 49.5092 141.127C49.8929 141.127 50.1808 141.255 50.3727 141.511C50.6285 141.703 50.8524 141.799 51.0443 141.799C50.9164 142.502 50.7245 143.142 50.4686 143.718C50.0209 145.189 48.9974 147.204 47.3983 149.762C45.7352 152.513 44.6798 154.56 44.232 155.903C43.9122 156.991 43.3685 158.654 42.6009 160.892C42.473 161.276 42.2811 161.82 42.0252 162.524C41.4495 163.227 40.7459 164.347 39.9144 165.882C39.6585 166.457 39.6265 166.873 39.8184 167.129C40.2022 167.449 40.3941 167.673 40.3941 167.801C43.2725 167.801 45.9911 167.705 48.5497 167.513C51.1083 167.321 52.9633 167.033 54.1147 166.649C55.0741 166.329 56.8012 165.466 59.2958 164.059C60.2553 163.611 61.7265 162.843 63.7095 161.756C65.6924 160.605 68.5708 157.854 72.3448 153.504C73.0484 152.801 73.72 152.097 74.3597 151.394C74.9993 150.69 75.4791 149.858 75.7989 148.899C76.1827 147.939 76.3746 146.98 76.3746 146.02C76.3746 142.63 75.1273 140.519 72.6326 139.688C72.2488 139.56 71.3213 139.496 69.8501 139.496C68.8907 139.496 67.7393 139.112 66.396 138.345C65.0527 137.513 63.9014 137.097 62.9419 137.097C62.1103 137.097 60.831 137.257 59.104 137.577C57.3769 137.897 56.1296 138.057 55.362 138.057C54.5944 138.057 53.8908 137.897 53.2511 137.577C52.6115 137.257 51.9718 137.097 51.3322 137.097C50.8204 137.097 50.0209 137.193 48.9335 137.385C47.91 137.513 47.1424 137.577 46.6307 137.577C45.9911 137.577 44.9356 137.513 43.4644 137.385C42.0572 137.257 40.9378 137.193 40.1063 137.193C40.1063 137.193 39.4666 137.193 38.1873 137.193C37.9314 137.257 37.4517 137.417 36.7481 137.673C36.0445 137.865 35.5008 137.961 35.117 137.961C33.3259 137.961 31.6948 137.577 30.2236 136.809C30.1596 136.809 29.8718 136.522 29.3601 135.946C29.1682 135.754 28.4646 135.658 27.2492 135.658C26.9294 135.658 26.4177 135.658 25.7141 135.658C25.0104 135.722 24.4667 135.754 24.0829 135.754C22.8036 135.754 21.9721 135.594 21.5883 135.274C20.7567 134.507 20.341 134.123 20.341 134.123C19.8292 133.995 19.0617 133.771 18.0382 133.451C17.2706 132.812 16.8868 131.788 16.8868 130.381C16.8868 129.485 17.0468 128.558 17.3666 127.598C18.7738 123.761 22.8356 120.53 29.552 117.908Z" fill="black"/>
<path d="M1011.78 106.625C1013.87 106.625 1015.67 106.752 1017.19 107.005C1018.2 107.322 1019.72 107.796 1021.74 108.429L1021.84 109.947C1021.27 110.137 1020.42 110.517 1019.28 111.086C1018.14 111.656 1016.81 112.858 1015.29 114.693C1015.35 114.693 1015.35 114.725 1015.29 114.788H1015.2C1015.01 114.851 1014.72 114.883 1014.34 114.883H1014.25C1014.31 114.693 1014.34 114.661 1014.34 114.788C1013.96 114.472 1013.9 114.06 1014.15 113.554C1014.15 113.301 1014.34 112.573 1014.72 111.371C1014.53 111.245 1014.28 111.023 1013.96 110.707C1013.08 110.707 1011.91 110.675 1010.45 110.612C1008.61 110.549 1007.44 110.517 1006.94 110.517C1004.28 110.454 1001.97 110.738 1000.01 111.371C999.187 111.624 998.238 112.162 997.162 112.985C995.833 114.124 994.979 114.756 994.599 114.883C994.22 115.009 993.714 115.231 993.081 115.547C991.689 116.37 990.297 117.699 988.905 119.534C987.576 121.368 986.785 122.982 986.532 124.374C986.405 125.133 986.437 125.829 986.627 126.462C986.943 127.411 988.24 128.297 990.518 129.12C992.606 129.879 994.315 130.259 995.643 130.259C996.403 130.259 997.194 130.132 998.016 129.879C998.839 129.563 999.472 129.373 999.914 129.309C999.914 129.309 1001.24 129.309 1003.9 129.309C1004.47 129.309 1005.32 129.246 1006.46 129.12C1007.67 128.93 1008.55 128.835 1009.12 128.835C1010.7 128.835 1011.46 129.183 1011.4 129.879C1011.4 129.942 1011.34 130.069 1011.21 130.259C1011.15 130.448 1011.08 130.607 1011.02 130.733C1010.45 130.796 1009.53 130.986 1008.27 131.303C1008.08 131.366 1007.51 131.682 1006.56 132.252C1005.99 132.568 1005.36 132.726 1004.66 132.726C1002.95 132.663 1002.1 132.631 1002.1 132.631C1001.59 132.631 1001.05 132.79 1000.48 133.106C999.978 133.359 999.598 133.517 999.345 133.581C999.345 133.581 998.016 133.581 995.359 133.581C991.119 133.581 987.829 133.929 985.488 134.625C984.982 135.004 984.127 135.415 982.925 135.858C983.305 135.795 982.64 135.763 980.932 135.763C980.426 135.763 979.983 135.922 979.603 136.238C979.034 136.681 978.654 136.934 978.464 136.997C977.452 137.187 975.933 137.662 973.909 138.421C973.592 138.737 973.054 139.18 972.295 139.75C971.346 140.129 969.891 140.731 967.929 141.553C966.98 142.312 965.461 143.388 963.373 144.78C962.804 144.97 961.95 145.35 960.811 145.919C960.621 146.172 960.304 146.552 959.862 147.058C958.343 148.007 956.255 149.589 953.597 151.804C953.408 152.183 952.996 152.753 952.364 153.512C951.984 153.702 951.414 154.113 950.655 154.746C949.706 156.075 948.219 158.068 946.194 160.725C945.751 161.168 945.087 161.833 944.201 162.719C940.784 167.148 938.506 170.754 937.367 173.538C937.367 173.918 937.304 174.488 937.178 175.247C936.735 175.753 936.228 176.892 935.659 178.664C935.406 179.929 935.248 181.258 935.184 182.65C935.184 183.22 935.311 184.01 935.564 185.023C935.817 186.035 935.944 186.763 935.944 187.206C936.134 192.394 936.956 196.222 938.411 198.69C938.981 199.133 939.803 199.892 940.879 200.968C941.069 201.474 941.417 202.139 941.923 202.961C942.24 203.088 942.682 203.309 943.252 203.626C944.075 204.638 945.467 205.967 947.428 207.612C947.998 207.738 948.82 207.928 949.896 208.181C954.958 210.016 958.501 210.902 960.526 210.839C960.969 210.839 961.697 210.807 962.709 210.744C963.785 210.681 964.607 210.649 965.177 210.649C965.999 210.649 967.17 210.712 968.688 210.839C970.27 210.965 971.441 211.029 972.2 211.029C973.909 211.029 975.269 210.902 976.281 210.649C976.914 210.333 977.832 209.985 979.034 209.605C979.034 209.605 979.888 209.605 981.596 209.605C982.546 209.605 983.906 209.257 985.678 208.561C987.513 207.928 988.873 207.612 989.759 207.612C989.822 207.612 989.917 207.58 990.044 207.517C990.676 207.074 991.72 206.505 993.176 205.809C993.619 205.809 994.315 205.714 995.264 205.524C995.454 205.461 995.738 205.239 996.118 204.859C996.498 204.543 996.877 204.385 997.257 204.385C998.143 204.385 998.586 204.385 998.586 204.385L998.111 205.619C996.846 206.188 994.947 207.011 992.416 208.086C991.91 208.15 991.151 208.34 990.139 208.656C989.949 208.719 989.442 209.004 988.62 209.51C988.304 209.7 987.671 209.795 986.722 209.795C986.532 209.795 986.121 209.953 985.488 210.269C984.855 210.649 984.444 210.871 984.254 210.934C982.103 211.377 978.907 212.168 974.668 213.307C974.098 213.623 973.181 213.971 971.915 214.351C970.65 214.414 968.752 214.54 966.221 214.73C958.881 215.363 955.306 215.679 955.496 215.679C954.293 215.679 953.186 215.49 952.174 215.11C951.604 214.92 950.497 214.794 948.852 214.73C947.27 214.667 946.131 214.477 945.435 214.161C945.182 214.034 944.897 213.813 944.581 213.496C944.454 213.37 944.011 213.307 943.252 213.307C941.86 213.307 940.088 212.547 937.937 211.029C937.684 210.586 937.209 209.89 936.513 208.941C936.197 208.814 935.691 208.529 934.995 208.086C934.678 207.454 934.109 206.6 933.286 205.524C932.147 204.385 930.977 203.278 929.774 202.202C928.572 200.81 927.876 199.355 927.686 197.836C927.813 197.266 927.876 196.412 927.876 195.273L927.402 194.799C927.402 194.166 927.37 193.185 927.307 191.857C927.243 191.414 927.022 190.591 926.642 189.389C926.389 188.503 926.263 187.744 926.263 187.111C926.263 186.731 926.294 186.32 926.358 185.877C926.674 185.118 927.18 183.852 927.876 182.081C928.572 180.309 929.237 178.506 929.869 176.671C930.629 174.583 931.514 172.874 932.527 171.545C933.413 170.849 934.615 169.71 936.134 168.128C936.513 167.306 937.178 166.167 938.127 164.712C938.506 164.522 939.044 164.142 939.74 163.573C940.057 163.003 940.594 162.276 941.354 161.39C942.176 160.504 943.347 159.143 944.865 157.309C945.119 156.802 945.498 156.106 946.004 155.22C947.08 154.651 948.535 153.607 950.37 152.088C950.434 151.835 950.592 151.487 950.845 151.044C951.098 150.918 951.478 150.696 951.984 150.38C952.806 149.557 954.104 148.418 955.875 146.963C956.951 146.394 958.533 145.413 960.621 144.021C961.127 143.578 961.918 142.945 962.994 142.123C963.816 141.869 965.018 141.395 966.6 140.699C967.296 140.066 968.404 139.212 969.922 138.136C970.365 138.01 971.093 137.788 972.105 137.472C972.611 137.029 973.466 136.46 974.668 135.763C975.87 135.321 977.61 134.688 979.888 133.865V133.581C979.888 133.581 980.015 133.327 980.268 132.821C980.331 132.568 979.92 132.062 979.034 131.303C978.148 130.543 977.832 129.436 978.085 127.981C978.211 127.095 978.464 126.43 978.844 125.988C979.287 125.481 979.698 124.975 980.078 124.469C980.268 123.963 980.584 123.298 981.027 122.476C981.217 122.159 982.64 121.084 985.298 119.249C985.931 118.553 986.943 117.604 988.335 116.401C988.715 116.275 989.253 116.117 989.949 115.927C990.708 115.168 991.942 114.124 993.65 112.795C994.22 112.605 995.011 112.32 996.023 111.941C996.466 111.498 997.13 110.865 998.016 110.042C1000.8 108.334 1003.49 107.322 1006.08 107.005C1008.05 106.752 1009.94 106.625 1011.78 106.625ZM1023.93 172.115C1024.62 172.115 1025.07 172.463 1025.26 173.159C1025.51 173.855 1025.73 174.519 1025.92 175.152C1026.11 175.342 1026.36 175.658 1026.68 176.101C1026.87 176.734 1026.87 177.588 1026.68 178.664C1026.24 181.385 1025.29 183.789 1023.83 185.877C1023.33 186.32 1022.63 187.048 1021.74 188.06C1021.17 189.072 1020.23 190.528 1018.9 192.426C1017.82 193.628 1015.2 195.716 1011.02 198.69C1011.02 198.69 1010.7 199.007 1010.07 199.639C1009.69 200.019 1009.34 200.177 1009.03 200.114C1008.27 200.114 1007.89 200.114 1007.89 200.114V200.019C1007.89 199.829 1007.92 199.544 1007.98 199.165C1007.98 199.291 1008.01 199.133 1008.08 198.69C1009.15 198.753 1010.58 197.899 1012.35 196.128C1012.73 195.495 1013.33 194.641 1014.15 193.565C1014.85 193.122 1015.73 192.394 1016.81 191.382C1016.94 191.129 1017.13 190.718 1017.38 190.148C1017.88 189.705 1018.58 189.009 1019.47 188.06C1019.97 187.111 1020.76 185.719 1021.84 183.884C1022.28 183.504 1022.79 182.903 1023.36 182.081C1023.8 181.005 1024.02 179.803 1024.02 178.474C1024.02 177.335 1023.86 176.038 1023.55 174.583C1023.23 173.317 1023.07 172.684 1023.07 172.684C1023.14 172.305 1023.42 172.115 1023.93 172.115Z" fill="black"/>
<path d="M924.599 123.215C924.448 123.366 924.07 123.971 923.465 125.03C921.045 125.257 918.89 125.408 916.999 125.484C916.092 125.484 914.882 125.446 913.37 125.37C911.63 125.219 910.42 125.143 909.74 125.143C909.513 125.143 909.135 125.219 908.606 125.37C908.076 125.446 907.66 125.484 907.358 125.484C907.055 125.408 906.791 125.408 906.564 125.484C905.808 125.484 905.052 126.164 904.295 127.525C903.766 128.584 903.426 129.605 903.274 130.588C903.048 131.873 903.085 132.856 903.388 133.537C903.69 133.839 904.106 134.369 904.636 135.125C905.392 136.411 906.715 138.15 908.606 140.343C909.286 140.645 910.194 141.137 911.328 141.817C912.387 143.178 914.088 145.107 916.432 147.602C917.188 147.905 918.209 148.547 919.495 149.53C919.722 150.06 920.138 150.816 920.743 151.799C921.65 152.555 922.784 153.841 924.145 155.656C924.221 156.336 924.448 157.319 924.826 158.605C925.28 159.058 925.733 159.89 926.187 161.1C926.338 161.63 926.263 163.671 925.96 167.225C925.355 170.401 924.788 172.405 924.259 173.237C923.805 173.54 923.162 174.107 922.331 174.939C921.499 175.695 920.402 176.905 919.041 178.568C918.89 179.173 918.436 180.081 917.68 181.291C916.999 182.122 915.109 183.37 912.008 185.034C908.984 186.622 906.98 187.416 905.997 187.416C905.846 187.416 905.619 187.378 905.316 187.302C905.014 187.302 904.787 187.302 904.636 187.302C904.182 187.302 903.464 187.567 902.48 188.096C901.271 188.777 900.514 189.155 900.212 189.231C895.675 190.819 892.574 191.613 890.911 191.613C890.457 191.613 889.776 191.575 888.869 191.499C887.962 191.499 887.243 191.499 886.714 191.499C885.731 191.499 884.256 191.764 882.29 192.293C880.324 192.822 878.849 193.087 877.866 193.087C877.413 193.087 876.846 192.936 876.165 192.633C875.484 192.331 874.993 192.142 874.69 192.066C873.783 191.991 872.422 191.802 870.607 191.499C869.246 190.819 867.091 190.062 864.142 189.231C864.142 189.231 862.969 189.231 860.625 189.231C859.037 189.231 857.79 188.852 856.882 188.096C855.445 186.735 854.576 185.979 854.273 185.828C853.29 185.676 851.967 185.298 850.303 184.693C849.925 184.467 848.791 183.143 846.9 180.723C845.085 178.304 844.178 176.942 844.178 176.64C844.329 175.354 844.367 173.426 844.291 170.855C844.216 170.477 843.951 169.948 843.497 169.267C843.044 168.511 842.817 167.868 842.817 167.339C842.817 167.036 842.855 166.734 842.93 166.431C843.082 165.6 843.573 164.73 844.405 163.823C845.539 162.688 846.22 161.894 846.447 161.44C846.673 160.609 847.089 159.399 847.694 157.811C847.846 157.66 849.131 156.714 851.551 154.975C853.971 153.236 855.332 152.328 855.634 152.253C855.937 152.102 856.353 152.026 856.882 152.026C857.411 151.95 857.79 151.875 858.016 151.799C858.016 152.026 858.092 152.328 858.243 152.706C858.47 153.009 858.546 153.311 858.47 153.614C858.394 154.143 858.054 154.71 857.449 155.315C856.617 156.147 856.126 156.639 855.975 156.79C854.387 159.059 853.593 161.516 853.593 164.163C853.593 164.692 854.122 166.658 855.181 170.061C857.147 176.489 860.739 180.761 865.956 182.879C866.486 182.879 867.204 182.954 868.112 183.105C868.414 183.408 868.83 183.862 869.359 184.467C870.267 184.542 871.552 184.769 873.216 185.147C873.745 185.525 874.539 186.017 875.598 186.622C879.228 188.058 883.387 188.739 888.075 188.663C891.629 188.588 896.771 187.907 903.501 186.622L904.068 185.034C903.69 184.882 903.35 184.693 903.048 184.467C902.518 184.24 902.291 183.975 902.367 183.673C902.518 183.143 902.594 182.841 902.594 182.765C903.048 182.463 903.766 182.085 904.749 181.631C905.505 181.631 906.64 181.517 908.152 181.291C908.832 180.988 909.475 180.459 910.08 179.703C910.761 178.871 911.366 178.115 911.895 177.434C912.5 177.056 913.294 176.375 914.277 175.392C915.26 174.334 915.979 172.367 916.432 169.494C916.659 168.133 916.697 167.074 916.546 166.318C916.168 165.637 915.6 164.617 914.844 163.255C914.617 162.197 914.088 160.646 913.256 158.605C912.878 158.378 912.349 158 911.668 157.47C911.668 157.395 911.706 157.281 911.782 157.13C911.782 156.979 911.782 156.866 911.782 156.79C911.857 156.487 911.404 155.92 910.42 155.088C909.513 154.257 909.022 153.803 908.946 153.727C908.795 153.198 908.417 152.442 907.812 151.459C906.904 150.324 906.11 149.53 905.43 149.077C904.749 148.926 903.804 148.585 902.594 148.056C902.367 147.375 901.876 146.619 901.119 145.787C900.439 145.712 899.494 145.409 898.284 144.88C897.603 144.426 897.074 143.557 896.696 142.271C896.242 140.456 895.939 139.435 895.788 139.208C895.637 138.982 894.994 138.377 893.86 137.394C892.952 136.637 892.574 135.919 892.726 135.238C892.952 134.633 893.179 133.802 893.406 132.743C894.087 130.172 894.654 128.735 895.108 128.433C896.393 127.828 897.716 127.223 899.078 126.618C900.136 125.786 901.762 124.652 903.955 123.215C905.241 122.61 907.547 122.005 910.874 121.4C913.975 120.795 916.319 120.493 917.907 120.493C920.478 120.493 922.406 121.022 923.692 122.081C923.843 122.156 923.994 122.345 924.145 122.648C924.372 122.875 924.523 123.064 924.599 123.215Z" fill="black"/>
<path d="M760.24 0C765.562 0 770.155 0.285112 774.02 0.855335C775.287 1.23548 777.347 1.61563 780.198 1.99578C780.895 1.99578 782.067 2.34425 783.714 3.04118C786.058 3.99155 787.294 4.49841 787.42 4.56176C788.181 4.62512 789.353 4.84687 790.937 5.22702C791.57 5.48045 792.331 6.01898 793.218 6.84264C794.168 7.66629 794.833 8.20483 795.213 8.45828C795.847 8.64834 796.702 9.12351 797.779 9.88381L802.246 17.2967C802.5 17.9302 802.563 18.5005 802.436 19.0073C802.246 19.5142 802.088 20.021 801.961 20.5279C801.391 23.2523 799.902 25.5015 797.494 27.2755C796.861 27.6557 794.358 28.9862 789.986 31.267C789.289 31.8373 788.117 32.5342 786.47 33.3578C784.759 33.4846 782.193 33.738 778.772 34.1181C777.378 34.4349 775.953 34.7517 774.495 35.0685C772.848 35.3853 771.391 35.5437 770.124 35.5437L769.458 33.738C769.522 33.738 772.215 33.2628 777.537 32.3124C778.107 31.9957 779.026 31.6472 780.293 31.267C785.171 30.4434 787.864 29.9365 788.371 29.7465C789.765 29.1762 791.697 27.5606 794.168 24.8996C795.689 23.2523 796.449 22.1435 796.449 21.5733C796.449 20.9397 796.227 19.9577 795.784 18.6272C794.96 16.2196 794.263 14.794 793.693 14.3505C792.552 13.5269 791.444 12.7349 790.367 11.9746C789.543 10.8975 788.086 9.47199 785.995 7.69797C785.741 7.57125 783.429 6.84264 779.057 5.51213C774.685 4.18162 772.341 3.51637 772.024 3.51637C772.024 3.51637 770.789 3.51637 768.318 3.51637C767.684 3.51637 766.671 3.35797 765.277 3.04118C763.883 2.66103 762.806 2.47095 762.046 2.47095C760.842 2.47095 759.131 2.56599 756.914 2.75606C754.696 2.94614 753.049 3.04118 751.972 3.04118C751.528 3.04118 750.895 2.97782 750.071 2.85112C749.247 2.7244 748.645 2.66103 748.265 2.66103H747.6C747.03 2.97782 746.175 3.35796 745.034 3.80148C744.084 3.80148 742.722 3.9282 740.948 4.18162C740.187 4.56177 739.047 5.06864 737.526 5.70221C735.119 6.08236 731.634 6.96936 727.072 8.36322C726.629 8.80673 725.9 9.40863 724.886 10.1689C723.809 10.4857 722.257 11.0876 720.23 11.9746C719.723 12.4815 718.867 13.1784 717.664 14.0654C716.523 14.4456 714.876 15.1742 712.722 16.2513C712.088 16.6948 711.264 17.4867 710.251 18.6272C709.3 19.7676 708.54 20.4962 707.97 20.813C707.4 21.0665 706.544 21.4783 705.404 22.0485C704.834 22.7454 703.915 23.7592 702.648 25.0897C702.014 25.4698 701.349 25.85 700.652 26.2301C699.955 26.6102 699.543 27.1805 699.417 27.9408C699.036 28.0675 698.498 28.3209 697.801 28.7011C697.104 29.8415 695.869 31.4254 694.094 33.4529C693.461 33.643 692.574 34.0865 691.433 34.7834C691.37 35.1635 691.18 35.6387 690.863 36.2089C690.293 36.4624 689.501 36.9376 688.487 37.6345C687.98 38.5215 687.093 39.7253 685.826 41.2459C685.066 41.626 683.989 42.323 682.595 43.3367C681.898 43.9703 681.043 45.0473 680.029 46.5679C679.079 48.0252 678.318 49.0706 677.748 49.7041C676.925 50.211 675.816 51.0347 674.422 52.1751C673.788 53.4422 672.616 55.2479 670.906 57.5922C669.575 58.2891 667.769 59.6196 665.488 61.5837C665.425 62.2173 665.172 63.136 664.728 64.3398L663.778 64.7199C663.524 64.8466 663.271 65.3218 663.018 66.1455C662.701 67.2225 662.511 67.8244 662.447 67.9512C661.877 68.3947 661.053 69.2183 659.976 70.4221C659.913 71.0557 659.628 71.911 659.121 72.9881C658.678 73.2415 658.139 73.7167 657.505 74.4136C657.125 75.4274 656.428 76.8212 655.415 78.5953C654.908 78.9754 654.211 79.704 653.324 80.7811C653.07 81.2246 652.817 81.9532 652.564 82.9669C652.373 83.9173 652.183 84.6142 651.993 85.0577C651.106 86.1348 649.934 87.9088 648.477 90.3798C648.35 91.2034 648.065 92.3756 647.622 93.8961C647.051 95.0999 645.848 96.7789 644.01 98.9331C642.173 101.087 641.001 102.861 640.494 104.255C640.557 104.635 640.557 105.237 640.494 106.061C639.987 106.568 639.322 107.391 638.498 108.532C638.435 109.039 638.308 109.767 638.118 110.718C637.928 111.288 637.389 112.016 636.502 112.903C635.679 113.727 635.172 114.456 634.982 115.089C634.982 116.166 634.792 117.56 634.412 119.271C634.221 119.334 633.936 119.461 633.556 119.651C633.176 119.841 632.891 120.316 632.701 121.077C632.574 121.837 632.447 122.312 632.321 122.502C631.877 122.692 631.307 123.167 630.61 123.928C630.61 124.498 630.547 125.353 630.42 126.494C629.913 127.127 629.216 128.141 628.329 129.535C628.139 130.422 627.759 131.752 627.189 133.526C626.428 134.477 625.415 135.997 624.148 138.088C623.957 139.165 623.546 140.717 622.912 142.745C622.405 143.949 621.328 145.564 619.681 147.592C618.034 149.556 616.956 151.14 616.45 152.344C616.45 152.85 616.323 153.611 616.069 154.625C615.182 156.018 614.105 158.363 612.838 161.657L614.454 163.083C614.961 163.273 615.753 163.368 616.83 163.368C618.034 163.368 618.921 163.273 619.491 163.083C620.061 162.069 621.043 160.992 622.437 159.852C623.894 158.648 625.193 157.824 626.333 157.381C626.65 157.824 627.03 158.553 627.474 159.566C627.41 160.263 627.442 161.309 627.569 162.703C627.949 163.78 629.501 164.477 632.226 164.793C634 164.92 635.805 165.047 637.643 165.174C639.417 165.554 642.109 166.409 645.721 167.74C649.396 169.007 652.152 169.83 653.989 170.211C653.989 170.464 654.052 170.749 654.179 171.066L654.844 172.777L652.468 172.681L651.328 172.777L651.518 173.347C651.518 173.347 650.789 173.347 649.332 173.347L648.667 173.442L648.952 174.202H647.527C645.943 174.202 644.739 173.949 643.915 173.442C642.458 172.428 641.476 171.826 640.969 171.636C638.055 170.496 634.38 169.894 629.945 169.83C626.08 169.83 624.148 170.844 624.148 172.872C624.148 173.062 624.148 173.378 624.148 173.822C624.211 174.265 624.243 174.614 624.243 174.867C624.243 176.325 623.736 177.497 622.722 178.384C622.659 178.637 622.627 179.112 622.627 179.809C622.69 180.443 622.627 180.918 622.437 181.235C622.247 181.488 621.962 181.995 621.582 182.755C621.645 183.326 621.708 184.181 621.772 185.321C621.455 185.955 621.106 187 620.726 188.458C620.726 188.711 620.853 189.883 621.106 191.974C621.423 194.065 621.613 195.237 621.677 195.49C621.993 196.377 622.532 197.042 623.292 197.486C624.116 197.93 624.591 198.341 624.718 198.721C624.718 198.785 624.813 199.038 625.003 199.482C623.799 200.115 622.912 200.464 622.342 200.527C623.292 200.464 622.183 200.432 619.016 200.432C618.129 200.432 617.368 200.749 616.735 201.383C616.164 202.016 615.689 202.333 615.309 202.333C614.612 202.333 614.264 202.333 614.264 202.333L613.218 201.668C613.218 201.287 613.155 200.654 613.028 199.767C612.902 198.817 612.87 198.12 612.933 197.676C613.313 197.106 613.725 196.156 614.169 194.825C613.852 193.431 613.725 191.435 613.789 188.838C613.915 188.267 614.549 186.969 615.689 184.941C616.576 183.294 616.988 181.837 616.925 180.569C616.925 180.379 616.861 180.063 616.735 179.619C616.608 179.112 616.545 178.732 616.545 178.479L617.4 177.718C617.337 177.148 617.273 176.325 617.21 175.247C617.21 174.867 617.368 174.329 617.685 173.632C618.002 172.935 618.16 172.365 618.16 171.921C618.16 171.478 617.875 170.717 617.305 169.64C616.228 169.26 615.087 168.848 613.884 168.405C612.68 167.961 611.666 167.74 610.842 167.74C609.449 167.74 608.34 168.151 607.516 168.975C605.996 170.432 605.204 171.193 605.14 171.256C604.76 171.319 604.253 171.604 603.62 172.111C603.81 173.315 603.588 174.202 602.954 174.772C602.194 175.596 601.782 176.23 601.719 176.673C601.782 176.926 601.782 177.275 601.719 177.718C601.466 178.162 600.864 178.7 599.913 179.334C598.773 180.094 598.076 180.633 597.822 180.95C597.632 181.52 597.189 182.344 596.492 183.421C595.858 183.737 595.003 184.339 593.926 185.226C593.546 185.987 592.849 186.937 591.835 188.077C591.518 188.077 591.075 188.172 590.505 188.362C590.188 188.996 589.649 189.82 588.889 190.833C588.129 191.087 587.083 191.594 585.753 192.354C585.499 193.051 585.024 194.001 584.327 195.205C583.123 196.409 581.318 197.549 578.91 198.626C576.883 199.513 574.855 200.4 572.828 201.287C572.321 201.858 571.402 202.586 570.072 203.473C569.438 203.727 568.266 203.853 566.555 203.853C561.677 203.853 556.482 202.523 550.969 199.862L550.779 199.197L550.304 198.056C550.748 197.866 551.35 197.486 552.11 196.916C552.3 196.726 552.712 195.902 553.345 194.445C553.789 193.431 554.517 192.924 555.531 192.924C556.418 192.924 557.4 193.241 558.477 193.875C559.998 194.825 560.917 195.364 561.233 195.49C564.465 196.757 568.139 197.423 572.258 197.486C575.425 197.549 578.34 196.662 581.001 194.825C581.381 194.255 582.078 193.526 583.092 192.639C583.725 192.576 584.581 192.386 585.658 192.069C586.038 191.752 586.386 191.15 586.703 190.263C587.02 189.376 587.337 188.774 587.654 188.458C588.224 188.204 589.016 187.729 590.029 187.032C590.41 186.335 591.011 185.385 591.835 184.181C592.532 183.674 593.546 182.819 594.876 181.615C595.066 180.981 595.51 180.189 596.207 179.239C596.587 179.112 597.094 178.859 597.727 178.479C598.108 178.099 598.488 177.37 598.868 176.293C599.311 175.216 599.691 174.519 600.008 174.202C600.642 173.759 601.307 173.283 602.004 172.777C602.764 172.206 603.081 171.604 602.954 170.971L602.859 170.496C602.543 170.179 602.036 169.609 601.339 168.785C592.595 168.785 584.549 169.165 577.2 169.925C574.919 169.862 571.687 170.084 567.506 170.591C567.189 170.844 566.619 171.224 565.795 171.731C564.781 171.731 563.292 171.826 561.328 172.016C560.378 172.206 559.206 172.65 557.812 173.347C556.038 174.17 554.866 174.677 554.296 174.867C553.092 175.121 551.381 175.596 549.164 176.293C548.087 176.99 546.408 177.94 544.127 179.144C543.557 179.144 542.765 179.239 541.751 179.429C541.371 179.999 540.642 180.76 539.565 181.71C539.122 181.71 538.456 181.805 537.569 181.995C537.126 182.122 536.587 182.534 535.954 183.231C535.383 183.927 534.94 184.371 534.623 184.561C533.799 184.751 532.627 185.195 531.107 185.892C530.346 186.842 529.079 188.172 527.305 189.883C526.608 190.137 525.658 190.612 524.454 191.309C524.264 191.815 523.916 192.512 523.409 193.399C522.395 193.97 520.97 194.92 519.132 196.251C518.182 197.138 516.281 199.355 513.43 202.903C510.579 206.451 508.932 208.732 508.488 209.746C507.728 211.456 507.031 213.737 506.397 216.588C505.89 218.933 505.384 221.309 504.877 223.716C504.94 223.779 505.067 224.001 505.257 224.381C505.51 225.078 505.7 226.155 505.827 227.613H505.067C505.13 227.929 505.32 228.405 505.637 229.038C505.954 229.672 506.112 230.147 506.112 230.464C506.112 230.59 505.985 230.78 505.732 231.034C505.542 231.287 505.447 231.572 505.447 231.889C505.447 232.269 505.542 232.745 505.732 233.315C505.669 234.519 505.985 236.768 506.682 240.062C507.379 242.026 508.52 243.927 510.104 245.765C510.357 246.588 510.674 247.634 511.054 248.901C511.244 249.471 511.783 250.168 512.67 250.992C513.557 251.879 514 252.639 514 253.273C514 254.223 513.462 255.11 512.385 255.934C511.307 256.757 510.325 257.169 509.438 257.169C509.122 257.042 508.583 256.916 507.823 256.789C506.619 255.458 505.289 253.716 503.831 251.562C503.831 250.738 503.673 249.408 503.356 247.57C502.659 246.43 501.74 244.656 500.6 242.248C500.283 241.361 500.125 240.252 500.125 238.922C500.125 237.085 500.093 235.944 500.03 235.501C499.966 235.12 499.713 234.329 499.27 233.125C498.889 232.111 498.731 231.351 498.794 230.844H499.46C499.46 230.844 499.333 230.464 499.079 229.703L498.984 229.418L500.41 228.373C500.347 227.549 500.41 226.345 500.6 224.762L501.17 224.381C501.107 223.684 501.075 222.639 501.075 221.245L501.645 220.865C501.772 219.788 502.089 218.236 502.596 216.208C502.976 215.765 503.451 215.068 504.021 214.117C504.021 213.484 504.148 212.533 504.401 211.266C504.718 210.569 505.954 208.7 508.108 205.659C510.262 202.618 511.656 200.781 512.29 200.147C512.733 199.957 513.335 199.608 514.095 199.102C514.729 198.025 515.838 196.472 517.422 194.445C518.245 194.001 519.1 193.431 519.987 192.734L520.273 191.594C520.463 191.467 520.779 191.372 521.223 191.309C521.73 191.182 522.078 191.055 522.268 190.928C522.395 190.358 522.712 189.63 523.219 188.743C523.852 188.553 524.708 188.236 525.785 187.792C526.165 187.159 526.83 186.303 527.78 185.226C528.287 185.1 528.984 184.846 529.871 184.466C530.315 183.959 531.075 183.262 532.152 182.375C532.912 182.058 533.99 181.583 535.383 180.95C537.791 179.302 541.561 177.053 546.693 174.202C548.53 173.695 551.191 172.872 554.676 171.731C554.993 171.604 555.595 171.193 556.482 170.496C557.115 169.989 557.875 169.704 558.762 169.64C559.269 169.704 560.03 169.672 561.043 169.545C562.501 168.912 564.718 168.088 567.696 167.074C568.836 167.011 570.452 166.853 572.543 166.599C577.548 165.649 584.517 164.857 593.451 164.223C595.858 164.16 598.298 164.128 600.769 164.128C603.81 164.001 605.964 163.526 607.231 162.703C607.611 162.449 608.181 161.689 608.942 160.422C609.765 159.155 610.241 158.299 610.367 157.856C610.304 157.412 610.336 156.81 610.462 156.05C610.842 155.797 611.349 155.416 611.983 154.91C612.236 154.529 612.458 153.928 612.648 153.104C612.838 152.217 612.997 151.647 613.123 151.393C613.757 150.823 614.517 149.841 615.404 148.447C615.404 147.623 615.594 146.451 615.974 144.931C616.481 144.614 617.083 144.044 617.78 143.22C617.78 142.523 617.939 141.541 618.255 140.274C618.889 139.704 619.713 138.785 620.726 137.518C621.17 136.187 621.962 134.223 623.102 131.626C623.609 131.119 624.243 130.327 625.003 129.25C625.066 128.299 625.32 126.874 625.763 124.973C626.27 124.53 626.809 123.833 627.379 122.882C627.252 122.502 627.189 122.027 627.189 121.457C627.315 121.077 627.759 120.538 628.519 119.841C629.343 119.144 629.85 118.606 630.04 118.226C630.167 117.022 630.547 115.343 631.18 113.189C631.877 112.682 632.638 111.858 633.461 110.718C633.398 110.401 633.366 109.957 633.366 109.387C633.429 108.944 633.841 108.405 634.602 107.771C635.362 107.075 635.774 106.536 635.837 106.156C635.774 105.776 635.71 105.269 635.647 104.635C635.774 104.192 636.154 103.653 636.787 103.02C637.484 102.386 637.928 101.848 638.118 101.404C638.118 100.834 638.181 100.042 638.308 99.0281C638.498 98.5213 639.005 97.8243 639.829 96.9373C640.716 96.0503 641.254 95.29 641.444 94.6564C641.381 93.8961 641.476 92.8191 641.729 91.4252C641.919 90.9817 642.458 90.4748 643.345 89.9046C644.232 89.3344 644.771 88.7958 644.961 88.289C644.897 87.7821 644.834 87.0852 644.771 86.1982C645.151 85.8814 645.721 85.3745 646.481 84.6776C646.988 84.1074 647.527 83.0936 648.097 81.6364C648.667 80.1792 649.237 79.1655 649.807 78.5953C650.631 78.0884 651.581 77.1697 652.659 75.8392C652.595 75.3957 652.659 74.7621 652.849 73.9385C653.039 73.1148 653.672 72.1328 654.749 70.9923C655.826 69.7885 656.523 68.9015 656.84 68.3313C657.41 66.8107 658.551 64.6882 660.261 61.9639C661.022 61.5204 662.067 60.8234 663.398 59.873C663.778 58.9227 664.57 57.6872 665.774 56.1666C666.661 56.0399 667.801 55.5647 669.195 54.7411C669.195 54.1075 669.353 53.2838 669.67 52.2701C670.114 51.5732 670.937 50.7179 672.141 49.7041C673.408 48.6904 674.264 47.8668 674.707 47.2332C674.834 46.5996 675.151 45.8076 675.657 44.8573C676.101 44.2871 676.925 43.6852 678.128 43.0516C679.395 42.418 680.219 41.9111 680.599 41.531C681.17 40.644 682.152 39.3452 683.545 37.6345C684.749 36.9376 686.428 35.7971 688.582 34.2132C689.026 33.3262 689.818 32.0907 690.958 30.5067C692.352 29.7465 694.19 28.4476 696.47 26.6102C696.534 26.2935 696.724 25.8183 697.041 25.1847C697.294 24.9313 697.833 24.6145 698.656 24.2343C699.163 24.0443 699.575 23.4107 699.892 22.3336C700.525 22.1435 701.349 21.7634 702.363 21.1932C702.996 20.1794 704.168 18.7539 705.879 16.9165C706.576 16.3463 707.748 15.7444 709.395 15.1108C711.043 14.4139 712.151 13.8437 712.722 13.4002C713.102 12.9567 713.767 12.3864 714.717 11.6895C715.288 11.5628 716.016 11.3094 716.903 10.9292L716.998 10.264C718.075 10.0105 719.596 9.53535 721.56 8.83842C722.384 8.20484 723.746 7.34951 725.647 6.27244C727.041 6.01899 729.131 5.54381 731.919 4.84688C732.426 4.46673 733.218 3.99154 734.295 3.42132C735.435 3.29461 737.114 3.04118 739.332 2.66103C740.409 2.21753 742.088 1.64731 744.369 0.950365C748.044 0.316788 753.334 0 760.24 0ZM762.521 34.7834H762.616C764.263 34.7834 765.182 34.9735 765.372 35.3536C765.245 36.1773 763.091 36.8108 758.909 37.2543C756.312 37.5078 753.682 37.7612 751.021 38.0146L750.451 36.5891C752.415 36.2089 754.411 35.8288 756.439 35.4487C758.909 35.0052 760.937 34.7834 762.521 34.7834ZM739.902 38.0146L739.997 37.9196C740.948 37.9196 741.518 38.1097 741.708 38.4898C741.961 39.06 742.151 39.3768 742.278 39.4402C740.821 40.2638 738.477 40.8657 735.245 41.2459C731.571 41.7527 729.1 42.2279 727.832 42.6714C725.995 43.4951 723.176 44.6355 719.374 46.0927C717.854 46.4729 715.731 47.2332 713.007 48.3736C712.753 48.6904 712.31 49.1656 711.676 49.7992C710.536 50.2427 708.889 50.9396 706.734 51.89C706.227 52.4602 705.309 53.1888 703.978 54.0758C703.408 54.0758 702.584 54.1709 701.507 54.3609C700.304 54.8044 698.181 56.1033 695.14 58.2574C694.38 59.1444 693.144 60.3482 691.433 61.8688C690.103 62.5024 688.202 63.5795 685.731 65.1001C684.971 65.6703 684.147 66.589 683.26 67.8561C682.12 69.3767 681.328 70.3588 680.884 70.8023C679.997 71.3725 678.794 72.3228 677.273 73.6533C676.956 74.4136 676.386 75.459 675.562 76.7896C674.739 77.6766 673.535 79.0071 671.951 80.7811C671.888 80.8445 671.729 81.2246 671.476 81.9215C671.286 82.5551 671.096 82.8719 670.906 82.8719H670.24C669.733 83.5688 669.1 84.7726 668.34 86.4833C667.579 88.1939 666.914 89.3977 666.344 90.0947C665.837 90.3481 665.14 90.8233 664.253 91.5202C663.873 92.4706 663.176 93.7694 662.162 95.4167C659.818 98.3312 656.333 103.305 651.708 110.337C651.391 111.161 650.821 112.27 649.998 113.664C649.681 113.727 649.269 113.917 648.762 114.234C648.635 114.931 648.287 115.881 647.717 117.085C647.146 117.529 646.418 118.257 645.531 119.271C645.341 120.221 644.802 121.393 643.915 122.787C643.535 122.787 642.996 122.946 642.3 123.262C642.173 122.946 641.951 122.439 641.634 121.742C641.508 121.362 642.141 119.873 643.535 117.275C644.929 114.614 645.879 113.03 646.386 112.523C646.956 111.953 647.717 111.129 648.667 110.052C648.92 108.975 649.427 107.423 650.188 105.396C650.821 104.825 651.581 103.875 652.468 102.544C652.468 102.164 652.532 101.562 652.659 100.739C653.292 100.169 654.116 99.2499 655.129 97.9827C655.446 97.0323 656.048 95.7018 656.935 93.9912C657.949 93.1042 659.374 91.6786 661.212 89.7145C661.402 88.9542 661.845 87.8772 662.542 86.4833C663.303 85.9131 664.38 84.9627 665.774 83.6322C665.964 82.9986 666.375 82.0482 667.009 80.7811C667.896 79.9574 669.037 78.5319 670.43 76.5045C670.494 75.9342 670.747 75.2056 671.191 74.3186C671.571 74.1919 672.078 73.9701 672.711 73.6533C673.155 72.9564 673.883 72.0061 674.897 70.8023C675.594 70.4221 676.576 69.8202 677.843 68.9966C678.16 68.2996 678.762 67.3493 679.649 66.1455C680.346 65.892 681.265 65.4485 682.405 64.815C683.039 63.9279 684.052 62.7242 685.446 61.2036C686.523 60.6333 688.075 59.6513 690.103 58.2574C690.293 57.8773 690.61 57.4338 691.053 56.9269C691.814 56.7368 692.891 56.3567 694.285 55.7865C695.298 54.8995 696.914 53.759 699.131 52.3652C699.512 52.1751 700.082 51.985 700.842 51.7949C701.666 51.5415 702.204 51.3514 702.458 51.2247C702.774 51.0347 703.25 50.7179 703.883 50.2744C704.2 50.0209 704.802 49.8942 705.689 49.8942C706.006 49.8942 706.418 49.6091 706.924 49.0389C707.495 48.4053 707.843 48.0568 707.97 47.9935C709.047 47.6133 710.599 47.0114 712.627 46.1878C713.133 45.6809 713.862 45.1107 714.812 44.4771C714.812 44.4771 715.193 44.4771 715.953 44.4771C716.396 44.4771 717.157 44.1287 718.234 43.4317C719.374 42.7348 720.135 42.323 720.515 42.1962C721.528 42.1329 722.986 41.9111 724.886 41.531C725.203 41.2776 725.678 40.9291 726.312 40.4856C726.692 40.3589 727.262 40.2955 728.023 40.2955C728.846 40.2955 729.638 40.1371 730.398 39.8203C731.476 39.3768 732.204 39.1234 732.584 39.06C732.268 39.1234 733.408 39.1551 736.006 39.1551C736.576 39.1551 737.241 38.965 738.001 38.5849C738.762 38.2047 739.395 38.0146 739.902 38.0146Z" fill="black"/>
</svg>
