<svg xmlns="http://www.w3.org/2000/svg" viewBox="0 0 877.6 1010.9" fill="none"><path fill="#FFFFFF" fill-rule="evenodd" d="M 354.9 153.3 L 338.2 162.9 L 315.9 124.3 L 170.2 208.4 L 192.5 247.0 L 175.8 256.6 L 8.0 256.6 L 91.9 401.9 L 91.9 421.2 L 47.4 421.2 L 47.4 589.5 L 91.9 589.5 L 91.9 608.8 L 8.0 754.3 L 175.8 754.3 L 192.5 763.9 L 170.2 802.5 L 315.9 886.6 L 338.2 848.0 L 354.9 857.6 L 438.8 1002.9 L 522.7 857.6 L 539.4 848.0 L 561.7 886.6 L 707.4 802.5 L 685.1 763.9 L 701.8 754.3 L 869.6 754.3 L 785.7 609.0 L 785.7 589.7 L 830.2 589.7 L 830.2 421.4 L 785.7 421.4 L 785.7 402.1 L 869.6 256.8 L 701.8 256.8 L 685.1 247.2 L 707.4 208.6 L 561.7 124.5 L 539.4 163.1 L 522.7 153.5 L 438.8 8.0 Z M 403.4 754.3 L 395.1 749.5 L 249.4 665.4 L 241.1 660.6 L 205.7 640.1 L 205.7 370.9 L 241.1 350.4 L 249.4 345.6 L 395.1 261.5 L 403.4 256.7 L 438.8 236.2 L 474.2 256.7 L 482.5 261.5 L 628.2 345.6 L 636.5 350.4 L 671.9 370.9 L 671.9 640.1 L 636.5 660.6 L 628.2 665.4 L 482.5 749.5 L 474.2 754.3 L 438.8 774.8 Z"/></svg>
