<svg preserveAspectRatio="none" width="100%" height="100%" overflow="visible" style="display: block;" viewBox="0 0 324.213 374.373" fill="none" xmlns="http://www.w3.org/2000/svg">
<path id="Vector" d="M148.786 280.827L145.663 279.021L90.8369 247.374L87.7137 245.568L74.393 237.854V136.556L87.7137 128.842L90.8369 127.036L145.663 95.3901L148.786 93.5839L162.107 85.8699L175.427 93.5839L178.551 95.3901L233.376 127.036L236.5 128.842L249.82 136.556V237.854L236.5 245.568L233.376 247.374L178.551 279.021L175.427 280.827L162.107 288.541L148.786 280.827ZM130.536 54.6752L124.252 58.2877L115.86 43.7628L61.0346 75.4089L69.4259 89.9338L63.1418 93.5462H0L31.5709 148.221V155.484H14.8259V218.814H31.5709V226.076L0 280.827H63.1418L69.4259 284.439L61.0346 298.964L115.86 330.61L124.252 316.085L130.536 319.698L162.107 374.373L193.678 319.698L199.962 316.085L208.353 330.61L263.179 298.964L254.787 284.439L261.071 280.827H324.213L292.642 226.152V218.889H309.387V155.559H292.642V148.297L324.213 93.6215H261.071L254.787 90.0091L263.179 75.4842L208.353 43.838L199.962 58.3629L193.678 54.7505L162.107 0L130.536 54.6752Z" fill="#FFFFFF"/>
</svg>
